<svg width="24" height="24" viewBox="0 0 24 24" fill="none" xmlns="http://www.w3.org/2000/svg">
<path d="M9.72355 23C9.72355 23.2652 9.62124 23.5196 9.43913 23.7071C9.25702 23.8946 9.01003 24 8.75249 24H0.984001C0.726459 24 0.479466 23.8946 0.297357 23.7071C0.115248 23.5196 0.0129395 23.2652 0.0129395 23V1C0.0129395 0.734784 0.115248 0.48043 0.297357 0.292893C0.479466 0.105357 0.726459 0 0.984001 0H8.75249C9.01003 0 9.25702 0.105357 9.43913 0.292893C9.62124 0.48043 9.72355 0.734784 9.72355 1C9.72355 1.26522 9.62124 1.51957 9.43913 1.70711C9.25702 1.89464 9.01003 2 8.75249 2H1.95506V22H8.75249C9.01003 22 9.25702 22.1054 9.43913 22.2929C9.62124 22.4804 9.72355 22.7348 9.72355 23ZM23.0344 11.2925L18.1791 6.2925C17.9969 6.10486 17.7497 5.99944 17.492 5.99944C17.2344 5.99944 16.9872 6.10486 16.805 6.2925C16.6228 6.48014 16.5204 6.73464 16.5204 7C16.5204 7.26536 16.6228 7.51986 16.805 7.7075L20.0034 11H8.75249C8.49495 11 8.24795 11.1054 8.06585 11.2929C7.88374 11.4804 7.78143 11.7348 7.78143 12C7.78143 12.2652 7.88374 12.5196 8.06585 12.7071C8.24795 12.8946 8.49495 13 8.75249 13H20.0034L16.805 16.2925C16.6228 16.4801 16.5204 16.7346 16.5204 17C16.5204 17.2654 16.6228 17.5199 16.805 17.7075C16.9872 17.8951 17.2344 18.0006 17.492 18.0006C17.7497 18.0006 17.9969 17.8951 18.1791 17.7075L23.0344 12.7075C23.1247 12.6146 23.1963 12.5043 23.2451 12.3829C23.294 12.2615 23.3192 12.1314 23.3192 12C23.3192 11.8686 23.294 11.7385 23.2451 11.6171C23.1963 11.4957 23.1247 11.3854 23.0344 11.2925Z" fill="#0D4DA1"/>
</svg>
