<svg width="24" height="27" viewBox="0 0 24 27" fill="none" xmlns="http://www.w3.org/2000/svg">
<path d="M22 8.99668H18V5.99703C18 4.40592 17.3679 2.87998 16.2426 1.75489C15.1174 0.629808 13.5913 -0.0022583 12 -0.0022583C10.4087 -0.0022583 8.88258 0.629808 7.75736 1.75489C6.63214 2.87998 6 4.40592 6 5.99703V8.99668H2C1.46957 8.99668 0.960859 9.20737 0.585786 9.58239C0.210714 9.95742 0 10.4661 0 10.9964V24.9948C0 25.5252 0.210714 26.0338 0.585786 26.4088C0.960859 26.7839 1.46957 26.9945 2 26.9945H22C22.5304 26.9945 23.0391 26.7839 23.4142 26.4088C23.7893 26.0338 24 25.5252 24 24.9948V10.9964C24 10.4661 23.7893 9.95742 23.4142 9.58239C23.0391 9.20737 22.5304 8.99668 22 8.99668ZM8 5.99703C8 4.93629 8.42143 3.919 9.17157 3.16894C9.92172 2.41888 10.9391 1.99751 12 1.99751C13.0609 1.99751 14.0783 2.41888 14.8284 3.16894C15.5786 3.919 16 4.93629 16 5.99703V8.99668H8V5.99703ZM22 24.9948H2V10.9964H22V24.9948ZM13.5 17.9956C13.5 18.2922 13.412 18.5822 13.2472 18.8289C13.0824 19.0755 12.8481 19.2677 12.574 19.3813C12.2999 19.4948 11.9983 19.5245 11.7074 19.4666C11.4164 19.4087 11.1491 19.2659 10.9393 19.0561C10.7296 18.8464 10.5867 18.5791 10.5288 18.2882C10.4709 17.9973 10.5006 17.6957 10.6142 17.4217C10.7277 17.1476 10.92 16.9134 11.1666 16.7486C11.4133 16.5838 11.7033 16.4958 12 16.4958C12.3978 16.4958 12.7794 16.6538 13.0607 16.9351C13.342 17.2163 13.5 17.5978 13.5 17.9956Z" fill="#A1A1A1"/>
</svg>
