<svg width="24" height="20" viewBox="0 0 24 20" fill="none" xmlns="http://www.w3.org/2000/svg">
<path d="M22.6323 0.00109863H0.937402C0.697658 0.00109863 0.467734 0.106443 0.298209 0.293957C0.128685 0.481472 0.0334473 0.735795 0.0334473 1.00098V17.999C0.0334473 18.5293 0.223923 19.038 0.562972 19.413C0.90202 19.788 1.36187 19.9987 1.84136 19.9987H21.7284C22.2079 19.9987 22.6677 19.788 23.0067 19.413C23.3458 19.038 23.5363 18.5293 23.5363 17.999V1.00098C23.5363 0.735795 23.441 0.481472 23.2715 0.293957C23.102 0.106443 22.8721 0.00109863 22.6323 0.00109863ZM20.308 2.00086L11.7849 10.6436L3.2617 2.00086H20.308ZM21.7284 17.999H1.84136V3.27446L11.1736 12.7371C11.3403 12.9064 11.5585 13.0004 11.7849 13.0004C12.0112 13.0004 12.2294 12.9064 12.3962 12.7371L21.7284 3.27446V17.999Z" fill="#A1A1A1"/>
</svg>
