<svg width="28" height="28" viewBox="0 0 28 28" fill="none" xmlns="http://www.w3.org/2000/svg">
<path d="M13.2933 11.7083C13.3862 11.8013 13.4964 11.875 13.6178 11.9253C13.7392 11.9757 13.8694 12.0016 14.0008 12.0016C14.1322 12.0016 14.2623 11.9757 14.3837 11.9253C14.5051 11.875 14.6154 11.8013 14.7083 11.7083L19.7083 6.70829C19.8013 6.61541 19.875 6.50513 19.9253 6.38373C19.9757 6.26233 20.0016 6.1322 20.0016 6.00079C20.0016 5.86937 19.9757 5.73924 19.9253 5.61785C19.875 5.49645 19.8013 5.38616 19.7083 5.29329L14.7083 0.293287C14.6154 0.20031 14.5051 0.126551 14.3837 0.0762268C14.2623 0.0259025 14.1322 0 14.0008 0C13.8694 0 13.7392 0.0259025 13.6178 0.0762268C13.4964 0.126551 13.3862 0.20031 13.2933 0.293287L8.29329 5.29329C8.20031 5.38616 8.12655 5.49645 8.07623 5.61785C8.0259 5.73924 8 5.86937 8 6.00079C8 6.1322 8.0259 6.26233 8.07623 6.38373C8.12655 6.50513 8.20031 6.61541 8.29329 6.70829L13.2933 11.7083ZM14.0008 2.41454L17.587 6.00079L14.0008 9.58704L10.4145 6.00079L14.0008 2.41454ZM14.7083 16.2895C14.6154 16.1966 14.5051 16.1228 14.3837 16.0725C14.2623 16.0222 14.1322 15.9962 14.0008 15.9962C13.8694 15.9962 13.7392 16.0222 13.6178 16.0725C13.4964 16.1228 13.3862 16.1966 13.2933 16.2895L8.29329 21.2895C8.20031 21.3824 8.12655 21.4927 8.07623 21.6141C8.0259 21.7355 8 21.8656 8 21.997C8 22.1285 8.0259 22.2586 8.07623 22.38C8.12655 22.5014 8.20031 22.6117 8.29329 22.7045L13.2933 27.7045C13.3862 27.7975 13.4964 27.8713 13.6178 27.9216C13.7392 27.9719 13.8694 27.9978 14.0008 27.9978C14.1322 27.9978 14.2623 27.9719 14.3837 27.9216C14.5051 27.8713 14.6154 27.7975 14.7083 27.7045L19.7083 22.7045C19.8013 22.6117 19.875 22.5014 19.9253 22.38C19.9757 22.2586 20.0016 22.1285 20.0016 21.997C20.0016 21.8656 19.9757 21.7355 19.9253 21.6141C19.875 21.4927 19.8013 21.3824 19.7083 21.2895L14.7083 16.2895ZM14.0008 25.587L10.4145 22.0008L14.0008 18.4145L17.587 22.0008L14.0008 25.587ZM27.7083 13.2933L22.7083 8.29329C22.6154 8.20031 22.5051 8.12655 22.3837 8.07623C22.2623 8.0259 22.1322 8 22.0008 8C21.8694 8 21.7392 8.0259 21.6178 8.07623C21.4964 8.12655 21.3862 8.20031 21.2933 8.29329L16.2933 13.2933C16.2003 13.3862 16.1265 13.4964 16.0762 13.6178C16.0259 13.7392 16 13.8694 16 14.0008C16 14.1322 16.0259 14.2623 16.0762 14.3837C16.1265 14.5051 16.2003 14.6154 16.2933 14.7083L21.2933 19.7083C21.3862 19.8013 21.4964 19.875 21.6178 19.9253C21.7392 19.9757 21.8694 20.0016 22.0008 20.0016C22.1322 20.0016 22.2623 19.9757 22.3837 19.9253C22.5051 19.875 22.6154 19.8013 22.7083 19.7083L27.7083 14.7083C27.8013 14.6154 27.875 14.5051 27.9253 14.3837C27.9757 14.2623 28.0016 14.1322 28.0016 14.0008C28.0016 13.8694 27.9757 13.7392 27.9253 13.6178C27.875 13.4964 27.8013 13.3862 27.7083 13.2933ZM22.0008 17.587L18.4145 14.0008L22.0008 10.4145L25.587 14.0008L22.0008 17.587ZM11.7083 13.2933L6.70829 8.29329C6.61541 8.20031 6.50513 8.12655 6.38373 8.07623C6.26233 8.0259 6.1322 8 6.00079 8C5.86937 8 5.73924 8.0259 5.61785 8.07623C5.49645 8.12655 5.38616 8.20031 5.29329 8.29329L0.293287 13.2933C0.20031 13.3862 0.126551 13.4964 0.0762268 13.6178C0.0259025 13.7392 0 13.8694 0 14.0008C0 14.1322 0.0259025 14.2623 0.0762268 14.3837C0.126551 14.5051 0.20031 14.6154 0.293287 14.7083L5.29329 19.7083C5.38616 19.8013 5.49645 19.875 5.61785 19.9253C5.73924 19.9757 5.86937 20.0016 6.00079 20.0016C6.1322 20.0016 6.26233 19.9757 6.38373 19.9253C6.50513 19.875 6.61541 19.8013 6.70829 19.7083L11.7083 14.7083C11.8013 14.6154 11.875 14.5051 11.9253 14.3837C11.9757 14.2623 12.0016 14.1322 12.0016 14.0008C12.0016 13.8694 11.9757 13.7392 11.9253 13.6178C11.875 13.4964 11.8013 13.3862 11.7083 13.2933ZM6.00079 17.587L2.41454 14.0008L6.00079 10.4145L9.58704 14.0008L6.00079 17.587Z" fill="#C9C9C9"/>
</svg>
