<svg width="26" height="28" viewBox="0 0 26 28" fill="none" xmlns="http://www.w3.org/2000/svg">
<path d="M8 14V12C8 11.7348 8.10536 11.4804 8.29289 11.2929C8.48043 11.1054 8.73478 11 9 11C9.26522 11 9.51957 11.1054 9.70711 11.2929C9.89464 11.4804 10 11.7348 10 12V14C10 14.2652 9.89464 14.5196 9.70711 14.7071C9.51957 14.8946 9.26522 15 9 15C8.73478 15 8.48043 14.8946 8.29289 14.7071C8.10536 14.5196 8 14.2652 8 14ZM13 15C13.2652 15 13.5196 14.8946 13.7071 14.7071C13.8946 14.5196 14 14.2652 14 14V11C14 10.7348 13.8946 10.4804 13.7071 10.2929C13.5196 10.1054 13.2652 10 13 10C12.7348 10 12.4804 10.1054 12.2929 10.2929C12.1054 10.4804 12 10.7348 12 11V14C12 14.2652 12.1054 14.5196 12.2929 14.7071C12.4804 14.8946 12.7348 15 13 15ZM17 15C17.2652 15 17.5196 14.8946 17.7071 14.7071C17.8946 14.5196 18 14.2652 18 14V10C18 9.73478 17.8946 9.48043 17.7071 9.29289C17.5196 9.10536 17.2652 9 17 9C16.7348 9 16.4804 9.10536 16.2929 9.29289C16.1054 9.48043 16 9.73478 16 10V14C16 14.2652 16.1054 14.5196 16.2929 14.7071C16.4804 14.8946 16.7348 15 17 15ZM24 6V18H25C25.2652 18 25.5196 18.1054 25.7071 18.2929C25.8946 18.4804 26 18.7348 26 19C26 19.2652 25.8946 19.5196 25.7071 19.7071C25.5196 19.8946 25.2652 20 25 20H14V22.1725C14.6672 22.4084 15.2296 22.8726 15.5876 23.483C15.9457 24.0934 16.0765 24.8107 15.9568 25.5082C15.8371 26.2057 15.4747 26.8385 14.9337 27.2946C14.3926 27.7507 13.7077 28.0009 13 28.0009C12.2923 28.0009 11.6074 27.7507 11.0663 27.2946C10.5253 26.8385 10.1629 26.2057 10.0432 25.5082C9.92353 24.8107 10.0543 24.0934 10.4124 23.483C10.7704 22.8726 11.3328 22.4084 12 22.1725V20H1C0.734784 20 0.48043 19.8946 0.292893 19.7071C0.105357 19.5196 0 19.2652 0 19C0 18.7348 0.105357 18.4804 0.292893 18.2929C0.48043 18.1054 0.734784 18 1 18H2V6C1.46957 6 0.960859 5.78929 0.585786 5.41421C0.210714 5.03914 0 4.53043 0 4V2C0 1.46957 0.210714 0.960859 0.585786 0.585786C0.960859 0.210714 1.46957 0 2 0H24C24.5304 0 25.0391 0.210714 25.4142 0.585786C25.7893 0.960859 26 1.46957 26 2V4C26 4.53043 25.7893 5.03914 25.4142 5.41421C25.0391 5.78929 24.5304 6 24 6ZM14 25C14 24.8022 13.9414 24.6089 13.8315 24.4444C13.7216 24.28 13.5654 24.1518 13.3827 24.0761C13.2 24.0004 12.9989 23.9806 12.8049 24.0192C12.6109 24.0578 12.4327 24.153 12.2929 24.2929C12.153 24.4327 12.0578 24.6109 12.0192 24.8049C11.9806 24.9989 12.0004 25.2 12.0761 25.3827C12.1518 25.5654 12.28 25.7216 12.4444 25.8315C12.6089 25.9414 12.8022 26 13 26C13.2652 26 13.5196 25.8946 13.7071 25.7071C13.8946 25.5196 14 25.2652 14 25ZM2 4H24V2H2V4ZM22 6H4V18H22V6Z" fill="#C9C9C9"/>
</svg>
